<svg xmlns="http://www.w3.org/2000/svg" viewBox="-81.0 -115.0 252.0 230.0" width="252" height="230" role="img" aria-label="Expanded structural formula of 1,1,2,2-tetrabromoethane"><title>1,1,2,2-tetrabromoethane: every atom and bond is shown</title><rect x="-81.0" y="-115" width="252.0" height="230" fill="white"/><line x1="14.0" y1="0.0" x2="76.0" y2="0.0" stroke="#334155" stroke-width="2"/><line x1="0.0" y1="-14.0" x2="0.0" y2="-76.0" stroke="#334155" stroke-width="2"/><line x1="0.0" y1="14.0" x2="0.0" y2="76.0" stroke="#334155" stroke-width="2"/><line x1="90.0" y1="-14.0" x2="90.0" y2="-76.0" stroke="#334155" stroke-width="2"/><line x1="90.0" y1="14.0" x2="90.0" y2="76.0" stroke="#334155" stroke-width="2"/><line x1="-14.0" y1="0.0" x2="-42.0" y2="0.0" stroke="#334155" stroke-width="2"/><line x1="104.0" y1="0.0" x2="132.0" y2="0.0" stroke="#334155" stroke-width="2"/><text x="0.0" y="7.0" text-anchor="middle" font-family="Arial,sans-serif" font-size="20" fill="#0f172a">C</text><text x="90.0" y="7.0" text-anchor="middle" font-family="Arial,sans-serif" font-size="20" fill="#0f172a">C</text><circle cx="0.0" cy="-90.0" r="17" fill="#dbeafe"/><text x="0.0" y="-83.0" text-anchor="middle" font-family="Arial,sans-serif" font-size="20" fill="#1d4ed8">Br</text><circle cx="0.0" cy="90.0" r="17" fill="#dbeafe"/><text x="0.0" y="97.0" text-anchor="middle" font-family="Arial,sans-serif" font-size="20" fill="#1d4ed8">Br</text><circle cx="90.0" cy="-90.0" r="17" fill="#dbeafe"/><text x="90.0" y="-83.0" text-anchor="middle" font-family="Arial,sans-serif" font-size="20" fill="#1d4ed8">Br</text><circle cx="90.0" cy="90.0" r="17" fill="#dbeafe"/><text x="90.0" y="97.0" text-anchor="middle" font-family="Arial,sans-serif" font-size="20" fill="#1d4ed8">Br</text><text x="-56.0" y="7.0" text-anchor="middle" font-family="Arial,sans-serif" font-size="20" fill="#0f172a">H</text><text x="146.0" y="7.0" text-anchor="middle" font-family="Arial,sans-serif" font-size="20" fill="#0f172a">H</text></svg>