<svg xmlns="http://www.w3.org/2000/svg" viewBox="-81.0 -171.0 342.0 342.0" width="342" height="342" role="img" aria-label="Expanded structural formula of 2,2-dimethylpropane"><title>2,2-dimethylpropane: every atom and bond is shown</title><rect x="-81.0" y="-171.0" width="342.0" height="342.0" fill="white"/><line x1="14.0" y1="0.0" x2="76.0" y2="0.0" stroke="#334155" stroke-width="2"/><line x1="104.0" y1="0.0" x2="166.0" y2="0.0" stroke="#334155" stroke-width="2"/><line x1="90.0" y1="-14.0" x2="90.0" y2="-76.0" stroke="#334155" stroke-width="2"/><line x1="90.0" y1="14.0" x2="90.0" y2="76.0" stroke="#334155" stroke-width="2"/><line x1="-14.0" y1="0.0" x2="-42.0" y2="0.0" stroke="#334155" stroke-width="2"/><line x1="0.0" y1="-14.0" x2="0.0" y2="-42.0" stroke="#334155" stroke-width="2"/><line x1="0.0" y1="14.0" x2="0.0" y2="42.0" stroke="#334155" stroke-width="2"/><line x1="194.0" y1="0.0" x2="222.0" y2="0.0" stroke="#334155" stroke-width="2"/><line x1="180.0" y1="-14.0" x2="180.0" y2="-42.0" stroke="#334155" stroke-width="2"/><line x1="180.0" y1="14.0" x2="180.0" y2="42.0" stroke="#334155" stroke-width="2"/><line x1="90.0" y1="-104.0" x2="90.0" y2="-132.0" stroke="#334155" stroke-width="2"/><line x1="76.0" y1="-90.0" x2="48.0" y2="-90.0" stroke="#334155" stroke-width="2"/><line x1="104.0" y1="-90.0" x2="132.0" y2="-90.0" stroke="#334155" stroke-width="2"/><line x1="90.0" y1="104.0" x2="90.0" y2="132.0" stroke="#334155" stroke-width="2"/><line x1="76.0" y1="90.0" x2="48.0" y2="90.0" stroke="#334155" stroke-width="2"/><line x1="104.0" y1="90.0" x2="132.0" y2="90.0" stroke="#334155" stroke-width="2"/><text x="0.0" y="7.0" text-anchor="middle" font-family="Arial,sans-serif" font-size="20" fill="#0f172a">C</text><text x="90.0" y="7.0" text-anchor="middle" font-family="Arial,sans-serif" font-size="20" fill="#0f172a">C</text><text x="180.0" y="7.0" text-anchor="middle" font-family="Arial,sans-serif" font-size="20" fill="#0f172a">C</text><text x="90.0" y="-83.0" text-anchor="middle" font-family="Arial,sans-serif" font-size="20" fill="#0f172a">C</text><text x="90.0" y="97.0" text-anchor="middle" font-family="Arial,sans-serif" font-size="20" fill="#0f172a">C</text><text x="-56.0" y="7.0" text-anchor="middle" font-family="Arial,sans-serif" font-size="20" fill="#0f172a">H</text><text x="0.0" y="-49.0" text-anchor="middle" font-family="Arial,sans-serif" font-size="20" fill="#0f172a">H</text><text x="0.0" y="63.0" text-anchor="middle" font-family="Arial,sans-serif" font-size="20" fill="#0f172a">H</text><text x="236.0" y="7.0" text-anchor="middle" font-family="Arial,sans-serif" font-size="20" fill="#0f172a">H</text><text x="180.0" y="-49.0" text-anchor="middle" font-family="Arial,sans-serif" font-size="20" fill="#0f172a">H</text><text x="180.0" y="63.0" text-anchor="middle" font-family="Arial,sans-serif" font-size="20" fill="#0f172a">H</text><text x="90.0" y="-139.0" text-anchor="middle" font-family="Arial,sans-serif" font-size="20" fill="#0f172a">H</text><text x="34.0" y="-83.0" text-anchor="middle" font-family="Arial,sans-serif" font-size="20" fill="#0f172a">H</text><text x="146.0" y="-83.0" text-anchor="middle" font-family="Arial,sans-serif" font-size="20" fill="#0f172a">H</text><text x="90.0" y="153.0" text-anchor="middle" font-family="Arial,sans-serif" font-size="20" fill="#0f172a">H</text><text x="34.0" y="97.0" text-anchor="middle" font-family="Arial,sans-serif" font-size="20" fill="#0f172a">H</text><text x="146.0" y="97.0" text-anchor="middle" font-family="Arial,sans-serif" font-size="20" fill="#0f172a">H</text></svg>