<svg xmlns="http://www.w3.org/2000/svg" viewBox="-81.0 -81.0 402.0 162.0" width="402" height="162" role="img" aria-label="Expanded structural formula of methoxyethane"><title>methoxyethane: every atom and bond is shown</title><rect x="-81.0" y="-81.0" width="402.0" height="162.0" fill="white"/><line x1="14.0" y1="0.0" x2="66.0" y2="0.0" stroke="#334155" stroke-width="2"/><line x1="94.0" y1="0.0" x2="146.0" y2="0.0" stroke="#334155" stroke-width="2"/><line x1="174.0" y1="0.0" x2="226.0" y2="0.0" stroke="#334155" stroke-width="2"/><line x1="-14.0" y1="0.0" x2="-42.0" y2="0.0" stroke="#334155" stroke-width="2"/><line x1="0.0" y1="-14.0" x2="0.0" y2="-42.0" stroke="#334155" stroke-width="2"/><line x1="0.0" y1="14.0" x2="0.0" y2="42.0" stroke="#334155" stroke-width="2"/><line x1="160.0" y1="-14.0" x2="160.0" y2="-42.0" stroke="#334155" stroke-width="2"/><line x1="160.0" y1="14.0" x2="160.0" y2="42.0" stroke="#334155" stroke-width="2"/><line x1="254.0" y1="0.0" x2="282.0" y2="0.0" stroke="#334155" stroke-width="2"/><line x1="240.0" y1="-14.0" x2="240.0" y2="-42.0" stroke="#334155" stroke-width="2"/><line x1="240.0" y1="14.0" x2="240.0" y2="42.0" stroke="#334155" stroke-width="2"/><text x="0.0" y="7.0" text-anchor="middle" font-family="Arial,sans-serif" font-size="20" fill="#0f172a">C</text><circle cx="80.0" cy="0.0" r="17" fill="#dbeafe"/><text x="80.0" y="7.0" text-anchor="middle" font-family="Arial,sans-serif" font-size="20" fill="#1d4ed8">O</text><text x="160.0" y="7.0" text-anchor="middle" font-family="Arial,sans-serif" font-size="20" fill="#0f172a">C</text><text x="240.0" y="7.0" text-anchor="middle" font-family="Arial,sans-serif" font-size="20" fill="#0f172a">C</text><text x="-56.0" y="7.0" text-anchor="middle" font-family="Arial,sans-serif" font-size="20" fill="#0f172a">H</text><text x="0.0" y="-49.0" text-anchor="middle" font-family="Arial,sans-serif" font-size="20" fill="#0f172a">H</text><text x="0.0" y="63.0" text-anchor="middle" font-family="Arial,sans-serif" font-size="20" fill="#0f172a">H</text><text x="160.0" y="-49.0" text-anchor="middle" font-family="Arial,sans-serif" font-size="20" fill="#0f172a">H</text><text x="160.0" y="63.0" text-anchor="middle" font-family="Arial,sans-serif" font-size="20" fill="#0f172a">H</text><text x="296.0" y="7.0" text-anchor="middle" font-family="Arial,sans-serif" font-size="20" fill="#0f172a">H</text><text x="240.0" y="-49.0" text-anchor="middle" font-family="Arial,sans-serif" font-size="20" fill="#0f172a">H</text><text x="240.0" y="63.0" text-anchor="middle" font-family="Arial,sans-serif" font-size="20" fill="#0f172a">H</text></svg>