<svg xmlns="http://www.w3.org/2000/svg" viewBox="-81.0 -115.0 432.0 196.0" width="432" height="196" role="img" aria-label="Expanded structural formula of propanoic acid"><title>propanoic acid: every atom and bond is shown</title><rect x="-81.0" y="-115" width="432.0" height="196.0" fill="white"/><line x1="14.0" y1="0.0" x2="76.0" y2="0.0" stroke="#334155" stroke-width="2"/><line x1="104.0" y1="0.0" x2="166.0" y2="0.0" stroke="#334155" stroke-width="2"/><line x1="177.0" y1="-14.0" x2="177.0" y2="-76.0" stroke="#334155" stroke-width="2"/><line x1="183.0" y1="-14.0" x2="183.0" y2="-76.0" stroke="#334155" stroke-width="2"/><line x1="194.0" y1="0.0" x2="256.0" y2="0.0" stroke="#334155" stroke-width="2"/><line x1="-14.0" y1="0.0" x2="-42.0" y2="0.0" stroke="#334155" stroke-width="2"/><line x1="0.0" y1="-14.0" x2="0.0" y2="-42.0" stroke="#334155" stroke-width="2"/><line x1="0.0" y1="14.0" x2="0.0" y2="42.0" stroke="#334155" stroke-width="2"/><line x1="90.0" y1="-14.0" x2="90.0" y2="-42.0" stroke="#334155" stroke-width="2"/><line x1="90.0" y1="14.0" x2="90.0" y2="42.0" stroke="#334155" stroke-width="2"/><line x1="284.0" y1="0.0" x2="312.0" y2="0.0" stroke="#334155" stroke-width="2"/><text x="0.0" y="7.0" text-anchor="middle" font-family="Arial,sans-serif" font-size="20" fill="#0f172a">C</text><text x="90.0" y="7.0" text-anchor="middle" font-family="Arial,sans-serif" font-size="20" fill="#0f172a">C</text><circle cx="180.0" cy="0.0" r="17" fill="#dbeafe"/><text x="180.0" y="7.0" text-anchor="middle" font-family="Arial,sans-serif" font-size="20" fill="#1d4ed8">C</text><circle cx="180.0" cy="-90.0" r="17" fill="#dbeafe"/><text x="180.0" y="-83.0" text-anchor="middle" font-family="Arial,sans-serif" font-size="20" fill="#1d4ed8">O</text><circle cx="270.0" cy="0.0" r="17" fill="#dbeafe"/><text x="270.0" y="7.0" text-anchor="middle" font-family="Arial,sans-serif" font-size="20" fill="#1d4ed8">O</text><text x="-56.0" y="7.0" text-anchor="middle" font-family="Arial,sans-serif" font-size="20" fill="#0f172a">H</text><text x="0.0" y="-49.0" text-anchor="middle" font-family="Arial,sans-serif" font-size="20" fill="#0f172a">H</text><text x="0.0" y="63.0" text-anchor="middle" font-family="Arial,sans-serif" font-size="20" fill="#0f172a">H</text><text x="90.0" y="-49.0" text-anchor="middle" font-family="Arial,sans-serif" font-size="20" fill="#0f172a">H</text><text x="90.0" y="63.0" text-anchor="middle" font-family="Arial,sans-serif" font-size="20" fill="#0f172a">H</text><text x="326.0" y="7.0" text-anchor="middle" font-family="Arial,sans-serif" font-size="20" fill="#0f172a">H</text></svg>